<svg width="52" height="44" viewBox="0 0 52 44" fill="none" xmlns="http://www.w3.org/2000/svg">
<path d="M48.5979 17.6628C46.8575 17.5712 45.1171 17.5284 43.3767 17.5223C43.3767 17.4979 43.3767 17.4735 43.3767 17.449C43.2705 15.6901 43.1503 13.1982 45.0746 12.0622C46.6453 11.1278 47.3598 9.38106 46.341 7.88474C45.8104 7.10298 44.7987 6.5472 43.7304 6.40062C42.6409 4.81268 40.1435 3.97596 38.3535 5.75323C37.3206 6.77929 36.3018 7.86031 35.467 9.02683C35.3538 8.95965 35.2477 8.88636 35.1203 8.8375C33.6912 8.2634 32.2267 7.76869 30.6985 7.42668C30.6773 7.42668 30.6561 7.42668 30.6349 7.42057C30.5712 7.18238 30.4792 6.9564 30.3519 6.73653C30.3519 6.18686 30.3519 5.63108 30.3306 5.08141C31.9508 3.34078 31.0806 0 27.7059 0C26.9276 0 26.2909 0.183224 25.7744 0.476383C25.0245 0.219869 24.2038 0.146579 23.5105 0.33591C21.4871 0.903904 20.7725 2.38802 21.0414 4.092C21.1828 4.96537 21.4234 5.82041 21.7488 6.64492C21.3809 6.78539 21.0272 6.98083 20.723 7.24345C20.6169 7.34117 20.5037 7.42668 20.3905 7.51218C20.3551 7.5305 20.2773 7.56715 20.1428 7.65265C20.0155 7.71983 19.966 7.75648 19.9518 7.7748C19.9094 7.78091 19.8598 7.79312 19.782 7.81145C19.7396 7.82366 19.3292 7.90306 19.2019 7.94581C18.8057 7.94581 18.1407 7.92138 18.7208 7.99467C17.7445 7.86641 16.7045 7.99467 15.8696 8.40998C15.813 7.97024 15.6645 7.53661 15.4027 7.15184C14.7164 6.13189 13.4854 5.74102 12.2615 5.40511C10.6696 4.97758 8.38443 5.86317 7.95994 7.34117C4.14659 8.54434 5.55449 13.6196 9.30416 13.2959C9.37491 13.5891 9.47396 13.8762 9.62253 14.1571C9.77818 14.4503 9.9692 14.7434 10.1673 15.0244C10.1814 15.3969 10.1885 15.7756 10.0399 15.9832C9.70036 16.4535 8.5896 16.8566 8.02361 17.0643C6.52375 17.62 5.00265 17.7178 3.39666 17.62C0.361546 17.4307 -0.636009 20.0936 0.389845 21.9685C0.234199 22.2984 0.142225 22.6648 0.13515 23.0679C0.113926 24.5703 1.77652 26.3171 3.67258 26.1216C5.91531 25.8895 8.9009 25.2788 9.64376 27.618C9.86308 28.3203 10.3088 29.7128 9.98335 30.3785C9.70036 30.9587 7.91042 31.4168 7.21708 31.8687C4.71966 33.4994 5.67476 36.5654 7.70525 37.4754C8.5896 38.8068 10.4361 39.6008 12.3605 38.5137C14.582 37.2555 16.8035 35.918 19.5698 36.0218C19.6193 36.0218 20.2702 36.0401 20.631 36.0035C20.7159 36.2539 20.7867 36.5043 20.8362 36.7608C21.105 38.0067 21.0555 39.2466 20.9211 40.5047C20.6452 42.9843 23.3902 43.876 25.541 43.2103C26.4041 43.6256 27.4795 43.7722 28.3568 43.5706C30.3943 43.1065 31.1018 41.4391 30.8259 39.8146C30.6702 38.9045 30.3943 37.5059 30.5712 36.4371C31.9013 36.4188 32.8351 35.8752 33.3728 35.1179C35.7641 35.295 36.9527 36.3699 38.5304 37.9762C39.9241 39.3931 41.7707 39.1733 43.0229 38.2327C44.7492 38.0861 46.0651 36.5776 46.1005 35.0324C46.9778 33.2246 45.9448 30.6595 42.9876 30.6595C42.938 30.6595 42.8885 30.6595 42.839 30.6656C42.464 29.9632 42.2942 29.2059 42.5489 28.6013C43.2493 26.9767 46.4401 26.6041 48.0815 26.653C50.8406 26.7324 51.9231 24.5276 51.343 22.7442C52.7792 21.0463 51.8594 17.8338 48.5979 17.6628ZM18.9684 18.7927C19.0675 18.298 19.0392 17.8399 18.9118 17.4246C20.9494 17.0826 22.8667 16.4963 24.7627 15.7634C25.1943 15.5985 25.548 15.3297 25.8169 15.006C28.187 15.5679 30.3236 16.4779 32.3894 17.8033C32.4602 17.8521 32.538 17.8888 32.6158 17.9254C32.7078 19.0003 33.4931 19.8065 34.5119 20.2462C34.3775 20.8387 34.3067 21.4311 34.4977 22.0663C34.5826 22.335 34.7241 22.622 34.901 22.8908C34.6463 23.1656 34.4341 23.4832 34.2784 23.868C33.5073 25.7674 32.821 27.789 30.2316 28.0882C28.0384 28.3386 25.4136 28.0882 23.2982 27.5874C22.8101 27.4714 22.3643 27.4408 21.9399 27.4775C21.5507 26.8606 20.8716 26.3537 19.8598 26.1033C17.9567 25.6391 18.7279 19.9714 18.9684 18.7866V18.7927Z" fill="#929292"/>
</svg>
