<svg width="56" height="45" viewBox="0 0 56 45" fill="none" xmlns="http://www.w3.org/2000/svg">
<path d="M24.0376 0C26.667 0 29.2892 0 31.9186 0C31.9405 0.0183653 31.9624 0.0550962 31.9917 0.0612179C33.6643 0.58769 34.2121 1.23048 34.2121 2.66297C34.2121 3.8812 34.2121 5.09331 34.2121 6.31155C34.2121 6.70946 34.2997 7.08901 34.6211 7.41346C35.4319 8.22154 36.7393 8.27051 37.7326 7.51141C38.8794 6.62376 39.9969 5.71161 41.1363 4.81171C42.5241 3.71592 44.2478 3.71591 45.6283 4.79947C47.0745 5.94424 48.5207 7.08901 49.9596 8.2399C51.3619 9.36019 51.3619 10.6702 49.9596 11.7905C48.8713 12.6659 47.7684 13.5291 46.6728 14.3984C46.4244 14.5943 46.1907 14.7963 46.0519 15.0473C45.453 16.1125 46.4025 17.2695 47.9291 17.2879C49.5871 17.3124 51.2451 17.294 52.9031 17.294C53.7942 17.294 54.583 17.5021 55.2185 18.0225C55.6275 18.3531 55.8028 18.7816 56 19.1979V25.2829C55.1893 26.8317 54.5173 27.1868 52.4064 27.1868C50.9821 27.1868 49.5579 27.1868 48.1409 27.1868C47.8122 27.1868 47.4835 27.199 47.1694 27.2909C45.7671 27.7071 45.4457 29.0907 46.5632 29.9967C47.7099 30.9272 48.8932 31.8332 50.0399 32.7637C51.34 33.8167 51.3327 35.1451 50.0253 36.1919C48.5718 37.355 47.1183 38.5059 45.6575 39.663C44.2478 40.7771 42.5387 40.7771 41.129 39.663C40.0407 38.8059 38.967 37.9427 37.8787 37.0796C37.6231 36.8775 37.3528 36.6816 37.0095 36.5653C35.6656 36.1184 34.2559 36.8653 34.234 38.0652C34.2048 39.3814 34.2267 40.6975 34.2267 42.0198C34.2267 42.7667 33.9418 43.4095 33.226 43.9176C32.817 44.2053 32.3203 44.3339 31.831 44.4869H24.0595C24.0595 44.4869 24.0157 44.4318 23.9864 44.4257C22.3138 43.8992 21.766 43.2564 21.766 41.8239C21.766 40.6363 21.766 39.4487 21.766 38.2611C21.766 38.0284 21.7514 37.7958 21.6711 37.5754C21.2547 36.3939 19.4287 36.0695 18.2528 36.9755C17.0987 37.8632 15.9812 38.7753 14.8491 39.6752C13.4613 40.771 11.7449 40.7771 10.3644 39.6874C8.91822 38.5427 7.47202 37.3979 6.03313 36.247C4.63076 35.1267 4.63076 33.8167 6.03313 32.6964C7.12143 31.821 8.22434 30.9578 9.31994 30.0885C9.56828 29.8926 9.80201 29.6906 9.94809 29.4396C10.547 28.3744 9.5975 27.2174 8.07095 27.199C6.41294 27.1745 4.75492 27.1929 3.09691 27.1929C2.20582 27.1929 1.41698 26.9848 0.781532 26.4644C0.372506 26.1338 0.197209 25.7053 0 25.289V19.204C0.818051 17.6368 1.46811 17.3001 3.65201 17.3001C5.05439 17.3001 6.45676 17.3001 7.85914 17.3001C8.20973 17.3001 8.55302 17.2879 8.8817 17.1838C10.2549 16.743 10.547 15.3901 9.44411 14.4964C8.31199 13.572 7.15065 12.6782 6.00391 11.7599C4.65267 10.6764 4.65267 9.34794 6.00391 8.27051C7.45742 7.10738 8.91092 5.95648 10.3717 4.79947C11.7522 3.70979 13.4759 3.71592 14.8637 4.81171C15.952 5.66876 17.0257 6.53193 18.114 7.38898C18.3696 7.59712 18.6399 7.79301 18.9759 7.90933C20.3198 8.37458 21.7587 7.61548 21.7806 6.39725C21.8098 5.08107 21.7806 3.76489 21.7879 2.44871C21.7879 1.47535 22.2919 0.72237 23.3948 0.244872C23.6139 0.146923 23.8915 0.153044 24.0741 0H24.0376ZM27.9598 42.8463C28.9824 42.8463 30.005 42.8463 31.0275 42.8463C31.8675 42.8463 32.1377 42.6259 32.1377 41.9586C32.1377 40.6669 32.1377 39.3814 32.1377 38.0897C32.1377 37.3612 32.3788 36.6878 32.9412 36.1001C34.3947 34.5696 37.141 34.3309 38.9232 35.6287C40.2014 36.5592 41.3919 37.5571 42.6263 38.5243C43.2106 38.9834 43.5832 38.9896 44.1602 38.5365C45.6064 37.3918 47.0526 36.247 48.4915 35.0961C49.0685 34.637 49.0685 34.337 48.4915 33.8779C47.6077 33.1678 46.7093 32.4699 45.8255 31.7597C45.3653 31.3924 44.8614 31.0496 44.4962 30.6089C43.6051 29.5375 43.532 28.4111 44.277 27.2786C45.0074 26.1706 46.1907 25.589 47.7611 25.5584C49.441 25.5278 51.1136 25.5523 52.7935 25.5461C53.6627 25.5461 53.9257 25.3319 53.9257 24.634C53.9257 23.0423 53.9257 21.4507 53.9257 19.8529C53.9257 19.155 53.6627 18.9469 52.7862 18.9469C51.1063 18.9469 49.4264 18.9591 47.7538 18.9346C46.4317 18.9163 45.3653 18.4633 44.5838 17.6123C43.3567 16.2594 43.532 14.6188 45.0732 13.3455C46.2126 12.4088 47.3886 11.5028 48.5426 10.5784C49.0466 10.1744 49.0539 9.84993 48.5572 9.45202C47.0818 8.27051 45.5991 7.08901 44.109 5.91975C43.5905 5.50959 43.1887 5.52184 42.6482 5.94424C42.0639 6.40337 41.4942 6.86863 40.9099 7.32776C40.2233 7.86648 39.5586 8.42968 38.8282 8.93166C37.5792 9.78871 36.1403 9.94176 34.6357 9.43977C33.0873 8.91942 32.2181 7.9583 32.1523 6.61763C32.0939 5.27085 32.1377 3.92406 32.1304 2.57727C32.1304 1.87326 31.8675 1.659 31.0056 1.659C28.9824 1.659 26.9592 1.659 24.9287 1.659C24.0887 1.659 23.8184 1.87938 23.8184 2.54666C23.8184 3.8812 23.8477 5.20963 23.8038 6.54417C23.76 7.89708 22.92 8.88881 21.3497 9.42753C19.8085 9.954 18.3258 9.80708 17.0768 8.90106C15.784 7.96442 14.5788 6.95433 13.3299 5.98097C12.7455 5.52184 12.373 5.51572 11.796 5.96873C10.3498 7.1135 8.90361 8.25827 7.46472 9.40916C6.8877 9.86829 6.8877 10.1683 7.46472 10.6274C8.34851 11.3375 9.2469 12.0354 10.1307 12.7455C10.5835 13.1067 11.0729 13.4373 11.4308 13.8597C12.3365 14.9249 12.4388 16.0452 11.7084 17.1899C10.9853 18.3225 9.7874 18.9163 8.20243 18.953C6.54441 18.9836 4.8864 18.9591 3.22108 18.9652C2.29347 18.9652 2.03782 19.1673 2.03052 19.8774C2.03052 21.469 2.03052 23.0607 2.03052 24.6585C2.03052 25.3503 2.30077 25.5645 3.16995 25.5645C4.81336 25.5645 6.45676 25.5645 8.09287 25.5645C8.99857 25.5645 9.81662 25.7727 10.5397 26.2073C12.4461 27.3643 12.7455 29.5131 11.1313 30.9272C9.97 31.9434 8.7064 32.8923 7.48663 33.8656C6.8804 34.3493 6.87309 34.6431 7.46472 35.1145C8.89631 36.2531 10.3279 37.3918 11.7595 38.5243C12.3657 39.0018 12.7309 39.0018 13.3299 38.5243C14.4401 37.6428 15.5503 36.7674 16.6605 35.8858C17.537 35.1879 18.5742 34.7533 19.8231 34.8084C22.2335 34.9186 23.7965 36.2715 23.8038 38.1937C23.8038 39.4242 23.8038 40.6547 23.8038 41.8852C23.8038 42.6626 24.0449 42.8463 25.0382 42.8463C26.0024 42.8463 26.9738 42.8463 27.9379 42.8463H27.9598ZM18.6545 22.2526C18.6545 18.1633 22.8105 14.8575 27.9671 14.8453C33.1384 14.8331 37.3236 18.1633 37.309 22.271C37.2944 26.3665 33.1238 29.6661 27.9744 29.6539C22.8178 29.6477 18.6618 26.342 18.6618 22.2526H18.6545ZM27.9671 16.4982C23.9426 16.4982 20.7215 19.0754 20.7288 22.271C20.7434 25.4482 23.9499 28.001 27.9598 28.0071C31.9844 28.0132 35.22 25.4543 35.2273 22.2526C35.2273 19.0571 31.999 16.4921 27.9744 16.4921L27.9671 16.4982Z" fill="black"/>
</svg>
