<svg width="32" height="37" viewBox="0 0 32 37" fill="none" xmlns="http://www.w3.org/2000/svg">
<path d="M31.655 11.3813C32.0776 10.8371 31.9085 9.95457 31.1393 9.68983C30.759 8.66026 30.2518 7.66747 29.5925 6.74822C27.5807 3.93163 24.3517 2.39464 21.1818 0.732627C20.9959 0.637025 20.8099 0.585545 20.6324 0.570837C20.5817 0.548775 20.5394 0.526713 20.4803 0.512005C17.3442 -0.326354 14.073 -0.113087 11.0722 0.990017C11.0553 0.990017 11.0468 0.990017 11.0299 0.997371C10.9285 1.04149 10.8271 1.07091 10.7256 1.10768C10.5566 1.17387 10.4298 1.26212 10.3283 1.35772C10.1677 1.40184 10.0071 1.45332 9.86344 1.51951C9.84653 1.51951 9.82963 1.51951 9.81272 1.52686C8.96743 1.74013 8.13905 2.04164 7.36139 2.40199C5.81451 3.12268 4.43669 4.13019 3.36317 5.33625C2.17132 6.66733 1.42746 8.20432 0.700517 9.75602C-0.153224 11.5872 -0.102506 13.2639 0.201798 15.1906C0.23561 15.426 0.396214 15.6098 0.607536 15.7495C0.675159 17.4851 0.962557 19.2059 1.80785 20.7503C2.86446 22.6917 4.69028 24.3832 6.54146 25.9864C6.62598 26.4349 6.8204 26.8983 7.15852 27.3689C8.28275 28.928 9.4577 30.4502 10.7087 31.9358C11.0976 32.3991 11.5963 32.8035 12.1542 33.105C12.1711 33.1345 12.188 33.1712 12.2049 33.2006C13.1432 34.4435 14.2167 35.6201 15.417 36.6865C15.9326 37.1424 17.0822 37.1277 17.4119 36.4658C17.8599 35.5466 18.3163 34.6273 18.8742 33.7596C19.1447 33.333 19.4575 32.9359 19.7787 32.5388C19.8125 32.5094 19.8547 32.48 19.8886 32.4505C20.8522 31.6122 21.7144 30.6856 22.5428 29.7516C22.9485 29.2957 23.3373 28.8397 23.7262 28.3764C24.0136 28.0308 24.301 27.6998 24.4954 27.3395C24.8081 27.266 25.0871 27.1115 25.2308 26.8541C25.907 25.5966 27.158 24.7362 27.9864 23.4786C28.874 22.1328 29.5925 20.6988 30.294 19.2721C30.3025 19.2501 30.311 19.228 30.3194 19.1986C30.8942 18.625 31.283 17.8969 31.4521 17.0953C31.7057 16.8894 31.8663 16.5953 31.9001 16.2643C32.0861 14.6391 32.0184 12.9771 31.6465 11.3665L31.655 11.3813ZM23.2951 17.9925C23.1852 18.147 23.126 18.3308 23.1091 18.5147C22.0187 19.2501 20.9198 19.9928 19.8294 20.7282C19.5927 20.89 19.4913 21.1621 19.4828 21.4416C19.4152 21.4416 19.3391 21.4416 19.2715 21.4416C17.9444 21.5519 16.5581 22.1181 15.2817 21.6842C14.6478 21.471 13.98 21.4563 13.346 21.5886C11.909 20.4341 10.3791 19.1765 9.62676 17.9116C8.81528 16.5585 8.89981 14.72 9.06042 13.0359C9.06042 13.0359 9.07732 13.0359 9.07732 13.0286C9.27174 12.933 9.41544 12.8006 9.53378 12.6314C9.81272 12.3152 10.0917 11.9916 10.3706 11.6754C10.6411 11.3813 10.9285 11.1018 11.2582 10.8665C11.6385 10.6311 12.0358 10.4179 12.4416 10.2193C12.6444 10.1237 12.7966 9.96928 12.9065 9.79279C14.5886 9.41773 16.3975 9.50598 18.0796 9.95457C18.9334 10.1825 19.7026 10.1678 20.3788 10.0061C20.8691 10.4032 21.3509 10.8076 21.7904 11.2489C21.8665 11.3224 21.9341 11.396 22.0018 11.4695C22.0356 11.4989 22.0609 11.5357 22.0948 11.5651C22.2215 11.7048 22.3483 11.8593 22.4582 12.0137C22.7203 12.3593 22.9485 12.7197 23.1345 13.1021C23.1683 13.1609 23.2105 13.2198 23.2697 13.2712C23.3965 14.2861 23.2697 15.4407 23.1006 16.7129C23.0415 17.1615 23.126 17.5954 23.312 17.9925H23.2951Z" fill="#E66F51"/>
</svg>
