<svg width="9" height="7" viewBox="0 0 9 7" fill="none" xmlns="http://www.w3.org/2000/svg">
<path d="M7.40088 1.98372C6.87835 1.98372 6.36061 1.75894 5.8468 1.67368C5.79571 1.6652 5.34221 1.55183 5.33303 1.62201C5.3199 1.72239 5.21444 1.82815 5.15752 1.91195C5.01772 2.11775 4.88003 2.32513 4.74268 2.53202C4.52554 2.85909 4.23605 3.12449 3.95287 3.40471C3.63975 3.71456 3.28099 3.98965 2.89183 4.21856C2.76502 4.29315 2.65173 4.3847 2.52485 4.45826C2.41944 4.51937 2.29418 4.57147 2.20095 4.64486C2.07367 4.74505 1.91303 4.81259 1.80206 4.92906C1.74378 4.99023 1.63364 5.04834 1.59943 5.10991" stroke="#929292" stroke-width="3" stroke-linecap="round"/>
</svg>
