<svg width="7" height="19" viewBox="0 0 7 19" fill="none" xmlns="http://www.w3.org/2000/svg">
<path d="M1.52747 16.8634C1.7669 16.4498 2.06592 16.0704 2.4042 15.7321C2.53758 15.5987 2.63359 15.4441 2.73652 15.2867C2.79034 15.2044 2.82956 15.0072 2.8956 14.9544C3.10761 14.7848 3.25843 14.4376 3.42235 14.219C3.74097 13.7942 4.03857 13.3176 4.38747 12.9251C4.86098 12.3924 4.78536 11.8231 4.93543 11.1434C5.01963 10.762 5.15461 10.4137 5.15461 10.0227C5.15461 9.53347 5.47278 9.05569 5.47278 8.55913C5.47278 7.88607 5.15401 7.18542 4.96371 6.54051C4.90226 6.33227 4.8543 6.04594 4.75867 5.85468C4.7297 5.79674 4.6506 5.56601 4.61372 5.53651C4.43786 5.39582 4.48764 5.06934 4.32737 4.90017C4.02642 4.5825 3.84271 4.30297 3.74759 3.87495C3.66621 3.50873 3.4544 3.20022 3.29508 2.86388C3.10634 2.46541 2.97117 1.74034 2.54561 1.52756" stroke="#E66F51" stroke-width="3" stroke-linecap="round"/>
</svg>
