<svg width="35" height="39" viewBox="0 0 35 39" fill="none" xmlns="http://www.w3.org/2000/svg">
<path d="M20.7841 34.9856C19.8025 36.1913 18.759 37.3673 17.7421 38.5581C17.2469 39.1461 16.9904 39.1461 16.4952 38.5655C15.4517 37.3449 14.3906 36.1392 13.3471 34.9186L12.3567 33.8097C11.6669 33.0505 11.0214 32.3435 10.3759 31.629C7.68759 28.6519 4.99932 25.6749 2.85931 22.3778C1.51518 20.3087 0.32137 18.1727 0.0737661 15.7836C-0.403756 11.1542 1.44443 7.20963 5.4061 4.02417C13.6212 -2.57747 27.1776 -0.820999 32.6425 7.56687C34.871 10.9905 35.6315 14.5927 33.8717 18.3736C33.0847 20.0705 32.0501 21.6633 30.9182 23.2113C28.3448 26.7094 25.3382 29.9395 22.3935 33.2143C22.2609 33.3557 22.1371 33.5045 21.969 33.698M16.2211 0.868484C12.2683 0.94291 7.94404 2.55797 4.7075 5.92949C1.22336 9.5615 -0.00582112 13.6847 1.76278 18.2545C2.70014 20.6808 4.24766 22.8541 5.90131 24.9752C9.28818 29.3143 13.3117 33.2515 16.8489 37.4938C17.0877 37.7841 17.2115 37.6873 17.3972 37.4566C19.9528 34.3083 22.8533 31.3834 25.5239 28.3096C28.0177 25.4367 30.4849 22.5564 32.2888 19.3188C33.1378 17.8005 33.8452 16.2301 33.8187 14.5183C33.6949 6.89703 26.4259 0.875927 16.2122 0.868484H16.2211ZM25.5151 16.0589C25.5416 19.8175 21.9337 22.8764 17.4503 22.8987C12.9934 22.9211 9.31471 19.9068 9.29702 16.2078C9.27049 12.3451 12.8254 9.30101 17.3795 9.29357C21.8629 9.27868 25.4886 12.3004 25.5151 16.0664V16.0589ZM17.3884 22.0428C21.3058 22.0428 24.507 19.3858 24.5158 16.1036C24.5335 12.8363 21.3147 10.1346 17.4149 10.1346C13.5151 10.1346 10.3051 12.7916 10.2963 16.0217C10.2963 19.3635 13.4355 22.0354 17.3884 22.0428Z" fill="black"/>
</svg>
