<svg width="12" height="13" viewBox="0 0 12 13" fill="none" xmlns="http://www.w3.org/2000/svg">
<path d="M10.3745 1.5185C10.2385 2.11205 9.82949 2.61899 9.51527 3.12803C9.21372 3.61654 8.87864 4.09155 8.61737 4.60402C8.47114 4.89086 8.27361 5.13756 8.04982 5.36135C7.74669 5.66448 7.41946 5.92875 7.10273 6.21531C6.85969 6.43521 6.57589 6.59808 6.3331 6.82504C5.94058 7.19196 5.48218 7.48619 5.0996 7.86877C4.66388 8.30449 4.3846 8.85763 3.93638 9.28678C3.65499 9.55619 3.29287 9.78142 3.03848 10.074C2.79339 10.3558 2.41296 10.5389 2.18276 10.8331C2.06843 10.9791 1.93578 11.1022 1.80322 11.2284C1.71832 11.3093 1.63103 11.4439 1.51856 11.4814" stroke="#E66F51" stroke-width="3" stroke-linecap="round"/>
</svg>
